#N canvas 351 146 810 462 10;
#X obj 111 113 hsl 128 15 0 500 0 0 empty empty size -2 -8 0 10 -262144
-1 -1 0 1;
#X floatatom 108 134 5 0 0 0 - - -;
#X obj 109 167 hsl 128 15 0 500 0 0 empty empty color -2 -8 0 10 -262144
-1 -1 0 1;
#X floatatom 106 188 5 0 0 0 - - -;
#X obj 107 240 hsl 128 15 0 500 0 0 empty empty x -2 -8 0 10 -262144
-1 -1 0 1;
#X floatatom 104 261 5 0 0 0 - - -;
#X floatatom 211 281 5 0 0 0 - - -;
#X obj 249 166 vsl 15 128 0 500 0 0 empty empty y 0 -9 0 10 -262144
-1 -1 0 1;
#X obj 250 107 hradio 15 1 0 8 empty empty shape 0 -8 0 10 -262144
-1 -1 0;
#X floatatom 250 129 5 0 0 0 - - -;
#X obj 297 137 hradio 15 1 0 8 empty empty z 0 -8 0 10 -262144 -1 -1
0;
#X floatatom 297 159 5 0 0 0 - - -;
#X obj 302 196 hsl 128 15 0 100 0 0 empty empty ttl -2 -8 0 10 -262144
-1 -1 0 1;
#X floatatom 299 219 5 0 0 0 - - -;
#X obj -78 125 pack;
#X obj 12 26 loadbang;
#X msg -78 152 send id \$2 size \$1;
#X obj -82 97 \$2;
#X msg -46 52 bang;
#X obj -78 180 s \$1-udp-sender;
#X obj -87 254 pack;
#X obj -91 226 \$2;
#X obj -87 309 s \$1-udp-sender;
#X msg -87 281 send id \$2 color \$1;
#X obj -87 362 pack;
#X obj -91 334 \$2;
#X obj -87 417 s \$1-udp-sender;
#X msg -87 389 send id \$2 x \$1;
#X obj 135 351 pack;
#X obj 131 323 \$2;
#X obj 135 406 s \$1-udp-sender;
#X msg 135 378 send id \$2 y \$1;
#X obj 348 341 pack;
#X obj 344 313 \$2;
#X obj 348 396 s \$1-udp-sender;
#X msg 348 368 send id \$2 time-to-live \$1;
#X obj 525 176 pack;
#X obj 521 148 \$2;
#X obj 525 231 s \$1-udp-sender;
#X obj 560 34 pack;
#X obj 556 6 \$2;
#X obj 560 89 s \$1-udp-sender;
#X msg 560 61 send id \$2 shape \$1;
#X text 97 34 Creation arguments: parent-\$0 \, voice id;
#X obj 301 260 bng 15 250 50 0 empty empty collision 17 7 0 10 -262144
-1 -1;
#X obj 533 313 \$2;
#X obj 535 378 s \$1-udp-sender;
#X msg 525 203 send id \$2 z \$1;
#X msg 534 350 send id \$1 collision;
#X connect 0 0 1 0;
#X connect 1 0 14 0;
#X connect 2 0 3 0;
#X connect 3 0 20 0;
#X connect 4 0 5 0;
#X connect 5 0 24 0;
#X connect 6 0 28 0;
#X connect 7 0 6 0;
#X connect 8 0 9 0;
#X connect 9 0 39 0;
#X connect 10 0 11 0;
#X connect 11 0 36 0;
#X connect 12 0 13 0;
#X connect 13 0 32 0;
#X connect 14 0 16 0;
#X connect 15 0 18 0;
#X connect 16 0 19 0;
#X connect 17 0 14 1;
#X connect 18 0 17 0;
#X connect 18 0 21 0;
#X connect 18 0 25 0;
#X connect 18 0 29 0;
#X connect 18 0 33 0;
#X connect 18 0 37 0;
#X connect 18 0 40 0;
#X connect 18 0 45 0;
#X connect 20 0 23 0;
#X connect 21 0 20 1;
#X connect 23 0 22 0;
#X connect 24 0 27 0;
#X connect 25 0 24 1;
#X connect 27 0 26 0;
#X connect 28 0 31 0;
#X connect 29 0 28 1;
#X connect 31 0 30 0;
#X connect 32 0 35 0;
#X connect 33 0 32 1;
#X connect 35 0 34 0;
#X connect 36 0 47 0;
#X connect 37 0 36 1;
#X connect 39 0 42 0;
#X connect 40 0 39 1;
#X connect 42 0 41 0;
#X connect 44 0 45 0;
#X connect 45 0 48 0;
#X connect 47 0 38 0;
#X connect 48 0 46 0;
#X coords 0 -1 1 1 350 225 1 100 75;
