#N canvas 297 34 918 645 10;
#X obj 170 44 inlet;
#X floatatom 206 172 5 0 500 2 size - -;
#X obj 694 128 inlet;
#X obj 205 135 f;
#X floatatom 250 227 5 0 5 2 shape - -;
#X obj 249 136 f;
#X floatatom 296 168 5 0 100 2 color - -;
#X obj 296 136 f;
#X floatatom 340 170 5 0 0 2 texture - -;
#X obj 340 137 f;
#X floatatom 384 170 5 0 0 2 rotation - -;
#X obj 384 135 f;
#X floatatom 439 168 5 0 500 2 x - -;
#X obj 438 136 f;
#X floatatom 485 165 5 0 500 2 y - -;
#X obj 485 136 f;
#X floatatom 491 271 5 0 0 2 z - -;
#X obj 529 137 f;
#N canvas 230 114 625 534 shape-to-osc 0;
#X obj -5 252 tabosc4~;
#X obj 111 46 r main-dollar-0;
#X msg -19 137 set 1003-wavetable-0;
#X msg 110 79 set set \$1-wavetable-0;
#X msg 123 101 set set \$1-wavetable-1;
#X msg 146 124 set set \$1-wavetable-2;
#X msg 165 145 set set \$1-wavetable-3;
#X msg 182 166 set set \$1-wavetable-4;
#X msg 17 181 set 1003-wavetable-2;
#X msg 37 203 set 1003-wavetable-3;
#X msg 54 224 set 1003-wavetable-4;
#X obj -5 413 outlet~;
#X obj 76 9 inlet~;
#X msg -6 159 set 1003-wavetable-1;
#X obj -6 363 spigot~;
#X obj 83 277 noise~;
#X obj 83 363 spigot~;
#X obj 221 328 tgl 15 0 empty empty empty 17 7 0 10 -262144 -1 -1 1
1;
#X obj -33 5 inlet;
#X obj -33 31 select 5;
#X obj -23 64 select 0 1 2 3 4;
#X msg 227 263 1;
#X msg 207 294 0;
#X obj 82 315 *~ 0.5;
#X connect 0 0 14 0;
#X connect 1 0 3 0;
#X connect 1 0 4 0;
#X connect 1 0 5 0;
#X connect 1 0 6 0;
#X connect 1 0 7 0;
#X connect 2 0 0 0;
#X connect 3 0 2 0;
#X connect 4 0 13 0;
#X connect 5 0 8 0;
#X connect 6 0 9 0;
#X connect 7 0 10 0;
#X connect 8 0 0 0;
#X connect 9 0 0 0;
#X connect 10 0 0 0;
#X connect 12 0 0 0;
#X connect 13 0 0 0;
#X connect 14 0 11 0;
#X connect 15 0 23 0;
#X connect 16 1 11 0;
#X connect 17 0 16 1;
#X connect 17 0 14 1;
#X connect 18 0 19 0;
#X connect 19 0 21 0;
#X connect 19 1 20 0;
#X connect 19 1 22 0;
#X connect 20 0 2 0;
#X connect 20 1 13 0;
#X connect 20 2 8 0;
#X connect 20 3 9 0;
#X connect 20 4 10 0;
#X connect 21 0 17 0;
#X connect 22 0 17 0;
#X connect 23 0 16 0;
#X restore 234 324 pd shape-to-osc;
#N canvas 656 329 450 300 size-to-freq 0;
#X obj 24 42 inlet;
#X obj 24 102 sig~;
#X obj 23 146 outlet~;
#X obj 101 134 outlet;
#X obj 24 124 lop~ 2;
#X obj 24 73 expr 1000*(1-$f1)+100;
#X connect 0 0 5 0;
#X connect 1 0 4 0;
#X connect 4 0 2 0;
#X connect 5 0 1 0;
#X connect 5 0 3 0;
#X restore 204 248 pd size-to-freq;
#X floatatom 291 279 5 0 0 2 frequency - -;
#N canvas 164 39 956 550 color-to-filterbank 0;
#X obj 32 25 inlet;
#X obj 194 295 biquad~;
#X floatatom 270 93 0 0 0 0 - - -;
#X floatatom 340 224 0 0 0 0 - - -;
#X obj 194 323 biquad~;
#X obj 124 423 outlet~;
#X obj 102 123 tgl 15 0 empty empty bypass 17 7 0 10 -262144 -1 -1
0 1;
#X obj 191 380 spigot~;
#X obj 126 378 spigot~;
#X obj 196 237 biquad~;
#X obj 195 266 biquad~;
#X floatatom 410 95 0 0 0 0 - - -;
#X floatatom 330 282 0 0 0 0 - - -;
#X obj 189 42 inlet~;
#X obj 32 52 / 100;
#X obj -9 83 expr $f1*500+300 \; $f1*1000+800 \; $f1*2000+1800 \; $f1*4000+3800
\; $f1+8000+7800;
#X obj 195 352 biquad~;
#X floatatom 314 345 0 0 0 0 - - -;
#X obj 270 119 notch 300 100;
#X obj 410 122 notch 800 100;
#X obj 340 250 equalizer 1800 10 100;
#X obj 330 307 equalizer 3800 10 100;
#X obj 314 371 notch 7800 100;
#X connect 0 0 14 0;
#X connect 1 0 4 0;
#X connect 2 0 18 0;
#X connect 3 0 20 0;
#X connect 4 0 16 0;
#X connect 6 0 7 1;
#X connect 6 0 8 1;
#X connect 7 0 5 0;
#X connect 8 1 5 0;
#X connect 9 0 10 0;
#X connect 10 0 1 0;
#X connect 11 0 19 0;
#X connect 12 0 21 0;
#X connect 13 0 8 0;
#X connect 13 0 9 0;
#X connect 14 0 15 0;
#X connect 15 0 2 0;
#X connect 15 1 11 0;
#X connect 15 2 3 0;
#X connect 15 3 12 0;
#X connect 15 4 17 0;
#X connect 16 0 7 0;
#X connect 17 0 22 0;
#X connect 18 0 9 0;
#X connect 19 0 10 0;
#X connect 20 0 1 0;
#X connect 21 0 4 0;
#X connect 22 0 16 0;
#X coords 0 -1 1 1 60 40 1 100 100;
#X restore 238 368 pd color-to-filterbank;
#X obj 251 197 hradio 15 1 1 6 empty empty empty 0 -8 0 10 -262144
-1 -1 5;
#X obj 102 122 tgl 15 0 empty empty mute 17 7 0 10 -262144 -1 -1 0
1;
#X obj 563 589 spigot~;
#X obj 243 28 loadbang;
#X obj 214 531 pan~;
#X obj 160 569 throw~ particles-left;
#X obj 306 565 throw~ particles-right;
#X obj 102 150 s \$0-mute;
#X obj 602 562 r \$0-mute;
#X obj 191 500 spigot~;
#X obj 229 472 r \$0-mute;
#X obj 695 150 bng 15 250 50 0 empty empty collision 17 7 0 10 -262144
-1 -1;
#N canvas 189 59 870 398 granular-sample 0;
#X obj 497 62 inlet~;
#X obj 541 215 expr~ if ($v1>0 \, $v1 \, 0) \;;
#X msg 582 132 -0.25;
#X obj 543 164 osc~ 22;
#X obj 617 72 inlet;
#X text 661 72 sample;
#X obj 606 105 bng 15 250 50 0 empty empty empty 17 7 0 10 -262144
-1 -1;
#N canvas 0 0 450 300 (subpatch) 0;
#X array \$0-grain 1000 float 2;
#X coords 0 1 999 -1 200 80 1 0 0;
#X restore 0 40 graph;
#X obj 550 306 tabwrite~ \$0-grain;
#X obj 509 243 *~;
#X connect 0 0 9 0;
#X connect 1 0 9 1;
#X connect 2 0 3 1;
#X connect 3 0 1 0;
#X connect 4 0 6 0;
#X connect 6 0 2 0;
#X connect 6 0 8 0;
#X connect 9 0 8 0;
#X coords 0 -1 1 1 200 120 1 0 0;
#X restore 574 271 pd granular-sample;
#N canvas 0 0 1362 695 granular-osc 0;
#X obj 160 42 inlet;
#X text 202 42 frequency;
#X obj 163 64 sig~;
#X obj 122 300 outlet~;
#X floatatom 321 49 5 0 0 0 - - -;
#N canvas 644 119 450 300 reader~ 0;
#X obj 65 100 tabread4~ \$0-grain;
#X obj 65 56 phasor~;
#X obj 65 78 *~ 1000;
#X obj 65 123 outlet~;
#X obj 53 29 inlet~;
#X obj 166 17 inlet;
#X connect 0 0 3 0;
#X connect 1 0 2 0;
#X connect 2 0 0 0;
#X connect 4 0 1 0;
#X connect 5 0 1 1;
#X restore 144 172 pd reader~;
#X msg 201 148 0;
#N canvas 644 119 450 300 reader~ 0;
#X obj 65 100 tabread4~ \$0-grain;
#X obj 65 56 phasor~;
#X obj 65 78 *~ 1000;
#X obj 65 123 outlet~;
#X obj 53 29 inlet~;
#X obj 166 17 inlet;
#X connect 0 0 3 0;
#X connect 1 0 2 0;
#X connect 2 0 0 0;
#X connect 4 0 1 0;
#X connect 5 0 1 1;
#X restore 223 172 pd reader~;
#N canvas 644 119 450 300 reader~ 0;
#X obj 65 100 tabread4~ \$0-grain;
#X obj 65 56 phasor~;
#X obj 65 78 *~ 1000;
#X obj 65 123 outlet~;
#X obj 53 29 inlet~;
#X obj 166 17 inlet;
#X connect 0 0 3 0;
#X connect 1 0 2 0;
#X connect 2 0 0 0;
#X connect 4 0 1 0;
#X connect 5 0 1 1;
#X restore 306 175 pd reader~;
#N canvas 644 119 450 300 reader~ 0;
#X obj 65 100 tabread4~ \$0-grain;
#X obj 65 56 phasor~;
#X obj 65 78 *~ 1000;
#X obj 65 123 outlet~;
#X obj 53 29 inlet~;
#X obj 166 17 inlet;
#X connect 0 0 3 0;
#X connect 1 0 2 0;
#X connect 2 0 0 0;
#X connect 4 0 1 0;
#X connect 5 0 1 1;
#X restore 385 175 pd reader~;
#X msg 279 148 0.25;
#X msg 363 151 0.5;
#X msg 442 151 0.75;
#X obj 404 40 hsl 500 15 0.5 3000 1 0 empty empty empty -2 -8 0 10
-262144 -1 -1 0 1;
#X obj 137 243 *~ 0.8;
#X obj 358 74 inlet~;
#X obj 170 113 +~ 0;
#X obj 133 83 lop~ 20;
#X connect 0 0 13 0;
#X connect 2 0 17 0;
#X connect 4 0 2 0;
#X connect 5 0 14 0;
#X connect 6 0 5 1;
#X connect 7 0 14 0;
#X connect 8 0 14 0;
#X connect 9 0 14 0;
#X connect 10 0 7 1;
#X connect 11 0 8 1;
#X connect 12 0 9 1;
#X connect 13 0 4 0;
#X connect 14 0 3 0;
#X connect 15 0 16 0;
#X connect 16 0 5 0;
#X connect 16 0 7 0;
#X connect 16 0 8 0;
#X connect 16 0 9 0;
#X connect 17 0 16 0;
#X restore 644 433 pd granular-osc;
#X obj 788 177 metrum 400 0;
#N canvas 579 0 450 679 y-to-cutoff 0;
#X obj 49 8 inlet;
#X obj 206 35 inlet~;
#X obj 86 263 outlet~;
#X obj 52 112 sig~;
#X obj 52 137 lop~ 10;
#X obj 102 122 tgl 15 0 empty empty bypass 17 7 0 10 -262144 -1 -1
0 1;
#X obj 86 229 spigot~;
#X obj 248 194 spigot~;
#X floatatom 13 109 5 0 0 0 - - -;
#X obj 155 167 loadbang;
#X obj 72 196 vcf~;
#X obj 34 82 mtof;
#X floatatom 34 62 5 0 0 0 - - -;
#X msg 154 199 2;
#X obj 41 38 expr $f1*85 + 45;
#X connect 0 0 14 0;
#X connect 1 0 7 0;
#X connect 1 0 10 0;
#X connect 3 0 4 0;
#X connect 4 0 10 1;
#X connect 5 0 6 1;
#X connect 5 0 7 1;
#X connect 6 0 2 0;
#X connect 7 1 2 0;
#X connect 9 0 13 0;
#X connect 10 0 6 0;
#X connect 11 0 3 0;
#X connect 11 0 8 0;
#X connect 12 0 11 0;
#X connect 13 0 10 2;
#X connect 14 0 12 0;
#X coords 0 -1 1 1 60 40 1 100 100;
#X restore 563 464 pd y-to-cutoff;
#X obj 564 616 pan~;
#N canvas 367 54 821 590 granular-frequency-envelope 0;
#X obj 17 14 inlet;
#X obj 38 302 outlet~;
#X obj 37 223 line~;
#X obj 345 263 noise~;
#X obj 398 253 vline~;
#X msg 397 135 0 \, 1 0.5 \, 0 0.5 0.5;
#N canvas 0 0 450 300 (subpatch) 0;
#X array \$0-frequency-envelope 50 float 1;
#A 0 0.0265793 0.0667846 0.145513 0.0283427 0.079251 0.203812 0.256394
0.248456 0.35228 0.231028 0.290989 0.291538 0.355934 0.359171 0.421554
0.417865 0.518596 0.607041 0.54549 0.644991 0.738326 0.662427 0.651591
0.60987 0.697123 0.54226 0.583905 0.446069 0.407727 0.502751 0.368298
0.288749 0.253273 0.307473 0.368383 0.34394 0.126156 0.12957 0.105731
0.204633 0.196265 0.0658649 0.0364357 0.0867209 -0.00889042 -0.0418797
-0.0302635 0.038742 0.010086 0.0896856;
#X coords 0 1 49 -1 200 100 1 0 0;
#X restore 100 140 graph;
#X obj 36 246 *~ 50;
#X obj 37 273 tabread4~ \$0-frequency-envelope;
#X obj 357 8 inlet;
#X obj 357 90 select 0 1 2 3 4 5 6 7;
#X obj 344 309 tabwrite~ \$0-frequency-envelope;
#X msg 327 206 bang;
#X msg 544 126 0 \, 1 0.5 \, 0 0.5 0.5;
#X obj 360 36 hradio 15 1 0 8 empty empty empty 0 -8 0 10 -262144 -1
-1 0;
#X msg 452 187 0 \, 1 0.5 \, 1 0 0.1;
#X msg 414 160 1 \, 0.2 0.2 \, 1 0.2 0.2;
#X msg 473 216 1 \, 0 0.1 \, 1 0.1 0.1 \, 0 0.1 0.2 \, 1 0.8 0.3;
#X obj 345 284 expr~ $v1*0.1+$v2*0.7;
#X msg 580 177 1 \, 0 0.5 \, 1 0.5 1;
#X obj 169 426 outlet~;
#X obj 168 366 expr~ if($v1!=1 && $v2>0 \, 1 \, 0);
#X obj 44 53 loadbang;
#X obj 37 152 f;
#X msg 36 195 0 \, 1 \$1;
#X msg 44 75 bang;
#X floatatom 36 176 5 0 0 0 - - -;
#X obj 42 120 expr $f1/1000*500+1000;
#X obj 15 80 bng 15 250 50 0 empty empty empty 17 7 0 10 -262144 -1
-1;
#X obj 43 96 random 1000;
#X connect 0 0 23 0;
#X connect 2 0 7 0;
#X connect 2 0 21 0;
#X connect 3 0 18 0;
#X connect 4 0 18 1;
#X connect 5 0 4 0;
#X connect 7 0 8 0;
#X connect 8 0 1 0;
#X connect 8 0 21 1;
#X connect 9 0 14 0;
#X connect 10 0 5 0;
#X connect 10 1 16 0;
#X connect 10 2 15 0;
#X connect 10 3 17 0;
#X connect 10 4 13 0;
#X connect 10 5 19 0;
#X connect 12 0 11 0;
#X connect 13 0 4 0;
#X connect 14 0 12 0;
#X connect 14 0 10 0;
#X connect 15 0 4 0;
#X connect 16 0 4 0;
#X connect 17 0 4 0;
#X connect 18 0 11 0;
#X connect 19 0 4 0;
#X connect 21 0 20 0;
#X connect 22 0 25 0;
#X connect 23 0 26 0;
#X connect 24 0 2 0;
#X connect 25 0 29 0;
#X connect 26 0 24 0;
#X connect 27 0 23 1;
#X connect 28 0 23 0;
#X connect 29 0 27 0;
#X coords 0 -1 1 1 200 140 1 100 100;
#X restore 844 250 pd granular-frequency-envelope;
#X obj 504 654 throw~ collisions-left;
#X obj 645 653 throw~ collisions-right;
#X obj 562 557 *~;
#X obj 218 446 *~;
#X obj 254 510 expr $f1*90-45;
#X obj 439 192 / 500;
#X obj 485 191 / 500;
#X obj 206 193 / 500;
#X obj 578 136 f;
#X obj 578 193 / 100;
#X floatatom 578 168 5 0 0 2 time-to-live - -;
#X obj 755 408 expr~ $v1*20+0.1;
#X obj 491 296 change;
#X obj 48 39 r \$1-voice-\$2-mute;
#X obj 205 8 r \$1-voice-\$2-udp;
#X obj 47 69 r \$1-mute-all-voices;
#X obj 492 231 hradio 15 1 1 6 empty empty empty 0 -8 0 10 -262144
-1 -1 0;
#N canvas 384 131 894 422 x-z-to-amplitude-envelope 0;
#X obj 17 -8 inlet;
#X obj 623 342 outlet~;
#X obj 250 10 inlet;
#X obj 17 118 select 0 1 2 3 4 5 6 7;
#X floatatom 17 94 5 0 0 0 - - -;
#X text 64 -7 type;
#X text 290 14 parameter;
#X obj 250 47 f;
#X obj 417 211 noise~;
#X obj 408 5 inlet time-to-live;
#X obj 419 243 lop~ 20;
#X obj 412 39 * 100;
#X obj 449 277 *~ 100;
#X floatatom 250 98 5 0 0 0 - - -;
#X floatatom 482 206 5 0 0 0 - - -;
#X floatatom 210 17 5 0 0 0 - - -;
#N canvas 396 216 450 293 envelope-0 0;
#X obj 58 74 switch~;
#X obj 58 55 tgl 15 0 empty empty empty 17 7 0 10 -262144 -1 -1 1 1
;
#X obj 61 253 throw~ \$0-amplitude-envelope;
#X obj 180 35 r \$0-amplitude-parameter;
#X obj 64 139 osc~ 1;
#X obj 58 35 inlet;
#X obj 38 7 r \$0-set-envelope-generators;
#X connect 1 0 0 0;
#X connect 3 0 4 0;
#X connect 4 0 2 0;
#X connect 5 0 1 0;
#X connect 6 0 1 0;
#X restore -6 161 pd envelope-0;
#X obj 623 318 catch~ \$0-amplitude-envelope;
#X obj 248 125 s \$0-amplitude-parameter;
#X obj 17 29 t f b;
#X msg 44 50 0;
#X obj 44 68 s \$0-set-envelope-generators;
#N canvas 396 216 678 293 envelope-1 0;
#X obj 58 74 switch~;
#X obj 58 55 tgl 15 0 empty empty empty 17 7 0 10 -262144 -1 -1 0 1
;
#X obj 61 194 throw~ \$0-amplitude-envelope;
#X obj 180 35 r \$0-amplitude-parameter;
#X obj 58 35 inlet;
#X obj 38 7 r \$0-set-envelope-generators;
#X obj 64 137 square~ 1;
#X obj 63 161 expr~ $v1*0.5+0.5;
#X connect 1 0 0 0;
#X connect 3 0 6 0;
#X connect 4 0 1 0;
#X connect 5 0 1 0;
#X connect 6 0 7 0;
#X connect 7 0 2 0;
#X restore 16 195 pd envelope-1;
#N canvas 396 216 450 293 envelope-2 0;
#X obj 58 74 switch~;
#X obj 58 55 tgl 15 0 empty empty empty 17 7 0 10 -262144 -1 -1 0 1
;
#X obj 61 253 throw~ \$0-amplitude-envelope;
#X obj 180 35 r \$0-amplitude-parameter;
#X obj 58 35 inlet;
#X obj 38 7 r \$0-set-envelope-generators;
#X obj 64 139 phasor~ 1;
#X connect 1 0 0 0;
#X connect 3 0 6 0;
#X connect 4 0 1 0;
#X connect 5 0 1 0;
#X connect 6 0 2 0;
#X restore 48 229 pd envelope-2;
#N canvas 396 216 450 293 envelope-3 0;
#X obj 58 74 switch~;
#X obj 58 55 tgl 15 0 empty empty empty 17 7 0 10 -262144 -1 -1 0 1
;
#X obj 61 253 throw~ \$0-amplitude-envelope;
#X obj 180 35 r \$0-amplitude-parameter;
#X obj 64 139 osc~ 1;
#X obj 58 35 inlet;
#X obj 38 7 r \$0-set-envelope-generators;
#X obj 54 162 expr~ if($v1>0 \, $v1 \, 0);
#X connect 1 0 0 0;
#X connect 3 0 4 0;
#X connect 4 0 7 0;
#X connect 5 0 1 0;
#X connect 6 0 1 0;
#X connect 7 0 2 0;
#X restore 70 263 pd envelope-3;
#N canvas 396 216 450 293 envelope-4 0;
#X obj 58 74 switch~;
#X obj 58 55 tgl 15 0 empty empty empty 17 7 0 10 -262144 -1 -1 0 1
;
#X obj 64 224 throw~ \$0-amplitude-envelope;
#X obj 129 85 r \$0-amplitude-parameter;
#X obj 58 35 inlet;
#X obj 38 7 r \$0-set-envelope-generators;
#X obj 64 137 phasor~ 1;
#X obj 64 171 expr~ if($v1>0.5 \, 2*(1-$v1) \, $v1*2);
#X connect 1 0 0 0;
#X connect 3 0 6 0;
#X connect 4 0 1 0;
#X connect 5 0 1 0;
#X connect 6 0 7 0;
#X connect 7 0 2 0;
#X restore 117 162 pd envelope-4;
#X obj 249 77 expr $f1*20 + 0.5;
#N canvas 396 216 450 293 envelope-5 0;
#X obj 58 74 switch~;
#X obj 58 55 tgl 15 0 empty empty empty 17 7 0 10 -262144 -1 -1 0 1
;
#X obj 64 224 throw~ \$0-amplitude-envelope;
#X obj 129 85 r \$0-amplitude-parameter;
#X obj 58 35 inlet;
#X obj 38 7 r \$0-set-envelope-generators;
#X obj 64 137 phasor~ 1;
#X obj 63 171 expr~ if($v1>0.8 \, 0 \, $v1);
#X connect 1 0 0 0;
#X connect 3 0 6 0;
#X connect 4 0 1 0;
#X connect 5 0 1 0;
#X connect 6 0 7 0;
#X connect 7 0 2 0;
#X restore 129 186 pd envelope-5;
#X connect 0 0 19 0;
#X connect 2 0 7 0;
#X connect 3 0 16 0;
#X connect 3 1 22 0;
#X connect 3 2 23 0;
#X connect 3 3 24 0;
#X connect 3 4 25 0;
#X connect 3 5 27 0;
#X connect 4 0 3 0;
#X connect 7 0 26 0;
#X connect 8 0 10 0;
#X connect 9 0 11 0;
#X connect 10 0 12 0;
#X connect 11 0 14 0;
#X connect 12 0 1 0;
#X connect 13 0 18 0;
#X connect 14 0 12 1;
#X connect 15 0 7 0;
#X connect 17 0 1 0;
#X connect 19 0 4 0;
#X connect 19 1 20 0;
#X connect 20 0 21 0;
#X connect 26 0 13 0;
#X restore 333 428 pd x-z-to-amplitude-envelope;
#X obj 205 94 route size shape color texture rotation x y z time-to-live
collision;
#X msg 240 54 size 500 \, shape 2 \, color 3 \, texture 1 \, rotation
2 \, x 250 \, y 299 \, z 4 \, time-to-live 5;
#X connect 0 0 58 0;
#X connect 1 0 47 0;
#X connect 2 0 33 0;
#X connect 3 0 1 0;
#X connect 4 0 18 0;
#X connect 5 0 22 0;
#X connect 6 0 21 0;
#X connect 7 0 6 0;
#X connect 9 0 8 0;
#X connect 11 0 10 0;
#X connect 12 0 45 0;
#X connect 13 0 12 0;
#X connect 14 0 46 0;
#X connect 15 0 14 0;
#X connect 16 0 52 0;
#X connect 17 0 56 0;
#X connect 18 0 21 1;
#X connect 19 0 18 1;
#X connect 19 1 20 0;
#X connect 21 0 34 0;
#X connect 21 0 43 0;
#X connect 22 0 4 0;
#X connect 23 0 29 0;
#X connect 24 0 38 0;
#X connect 25 0 59 0;
#X connect 26 0 27 0;
#X connect 26 1 28 0;
#X connect 30 0 24 1;
#X connect 31 0 26 0;
#X connect 32 0 31 1;
#X connect 33 0 34 1;
#X connect 33 0 39 0;
#X connect 35 0 37 1;
#X connect 36 0 33 0;
#X connect 37 0 42 0;
#X connect 38 0 40 0;
#X connect 38 1 41 0;
#X connect 39 0 51 0;
#X connect 39 1 42 1;
#X connect 42 0 24 0;
#X connect 43 0 31 0;
#X connect 44 0 26 1;
#X connect 45 0 44 0;
#X connect 45 0 57 1;
#X connect 46 0 37 0;
#X connect 47 0 19 0;
#X connect 48 0 50 0;
#X connect 49 0 57 2;
#X connect 50 0 49 0;
#X connect 51 0 35 1;
#X connect 52 0 57 0;
#X connect 52 0 39 1;
#X connect 53 0 23 0;
#X connect 54 0 58 0;
#X connect 55 0 23 0;
#X connect 56 0 16 0;
#X connect 57 0 43 1;
#X connect 58 0 3 0;
#X connect 58 1 5 0;
#X connect 58 2 7 0;
#X connect 58 3 9 0;
#X connect 58 4 11 0;
#X connect 58 5 13 0;
#X connect 58 6 15 0;
#X connect 58 7 17 0;
#X connect 58 8 48 0;
#X connect 58 9 33 0;
#X connect 59 0 58 0;
#X coords 0 -1 1 1 85 40 1 100 100;
