#N canvas 0 0 1354 683 10;
#X obj 193 -3 inlet;
#X floatatom 206 172 5 0 500 2 size - -;
#X obj 694 128 inlet;
#X obj 205 135 f;
#X floatatom 255 180 5 0 5 2 shape - -;
#X obj 250 115 f;
#X floatatom 354 172 5 0 0 2 color - -;
#X obj 353 138 f;
#X floatatom 399 167 5 0 0 2 rotation - -;
#X obj 400 136 f;
#X floatatom 454 165 5 0 0 2 x - -;
#X obj 453 133 f;
#X floatatom 500 162 5 0 500 2 y - -;
#X obj 500 133 f;
#X floatatom 541 183 5 0 0 2 z - -;
#X obj 544 134 f;
#N canvas 230 114 625 534 shape-to-osc 0;
#X obj -5 252 tabosc4~;
#X obj 111 46 r main-dollar-0;
#X msg -19 137 set 1002-wavetable-0;
#X msg 110 79 set set \$1-wavetable-0;
#X msg 123 101 set set \$1-wavetable-1;
#X msg 146 124 set set \$1-wavetable-2;
#X msg 165 145 set set \$1-wavetable-3;
#X msg 182 166 set set \$1-wavetable-4;
#X msg 17 181 set 1002-wavetable-2;
#X msg 37 203 set 1002-wavetable-3;
#X msg 54 224 set 1002-wavetable-4;
#X obj -5 413 outlet~;
#X obj 76 9 inlet~;
#X msg -6 159 set 1002-wavetable-1;
#X obj -6 363 spigot~;
#X obj 83 277 noise~;
#X obj 83 363 spigot~;
#X obj 221 328 tgl 15 0 empty empty empty 17 7 0 10 -262144 -1 -1 0
1;
#X obj -33 5 inlet;
#X obj -33 31 select 5;
#X obj -23 64 select 0 1 2 3 4;
#X msg 227 263 1;
#X msg 207 294 0;
#X obj 82 315 *~ 0.5;
#X connect 0 0 14 0;
#X connect 1 0 3 0;
#X connect 1 0 4 0;
#X connect 1 0 5 0;
#X connect 1 0 6 0;
#X connect 1 0 7 0;
#X connect 2 0 0 0;
#X connect 3 0 2 0;
#X connect 4 0 13 0;
#X connect 5 0 8 0;
#X connect 6 0 9 0;
#X connect 7 0 10 0;
#X connect 8 0 0 0;
#X connect 9 0 0 0;
#X connect 10 0 0 0;
#X connect 12 0 0 0;
#X connect 13 0 0 0;
#X connect 14 0 11 0;
#X connect 15 0 23 0;
#X connect 16 1 11 0;
#X connect 17 0 16 1;
#X connect 17 0 14 1;
#X connect 18 0 19 0;
#X connect 19 0 21 0;
#X connect 19 1 20 0;
#X connect 19 1 22 0;
#X connect 20 0 2 0;
#X connect 20 1 13 0;
#X connect 20 2 8 0;
#X connect 20 3 9 0;
#X connect 20 4 10 0;
#X connect 21 0 17 0;
#X connect 22 0 17 0;
#X connect 23 0 16 0;
#X restore 234 324 pd shape-to-osc;
#N canvas 736 458 450 300 size-to-freq 0;
#X obj 34 -23 inlet;
#X obj 24 102 sig~;
#X obj 23 146 outlet~;
#X obj 101 134 outlet;
#X obj 24 124 lop~ 2;
#X obj 25 76 mtof;
#X floatatom 101 92 5 0 0 0 - - -;
#X obj 21 54 expr 55*(1-$f1)+30;
#X connect 0 0 7 0;
#X connect 1 0 4 0;
#X connect 4 0 2 0;
#X connect 5 0 1 0;
#X connect 5 0 3 0;
#X connect 5 0 6 0;
#X connect 7 0 5 0;
#X restore 204 248 pd size-to-freq;
#X floatatom 291 279 5 0 0 2 frequency - -;
#N canvas 1025 144 956 550 color-to-filterbank 0;
#X obj 32 25 inlet;
#X obj 194 295 biquad~;
#X floatatom 270 93 0 0 0 0 - - -;
#X floatatom 340 224 0 0 0 0 - - -;
#X obj 194 323 biquad~;
#X obj 124 423 outlet~;
#X obj 102 123 tgl 15 0 empty empty bypass 17 7 0 10 -262144 -1 -1
0 1;
#X obj 191 380 spigot~;
#X obj 126 378 spigot~;
#X obj 196 237 biquad~;
#X obj 195 266 biquad~;
#X floatatom 410 95 0 0 0 0 - - -;
#X floatatom 330 282 0 0 0 0 - - -;
#X obj 189 42 inlet~;
#X obj -9 83 expr $f1*500+300 \; $f1*1000+800 \; $f1*2000+1800 \; $f1*4000+3800
\; $f1+8000+7800;
#X obj 195 352 biquad~;
#X floatatom 314 345 0 0 0 0 - - -;
#X obj 270 119 notch 300 100;
#X obj 410 122 notch 800 100;
#X obj 340 250 equalizer 1800 10 100;
#X obj 330 307 equalizer 3800 10 100;
#X obj 314 371 notch 7800 100;
#X connect 0 0 14 0;
#X connect 1 0 4 0;
#X connect 2 0 17 0;
#X connect 3 0 19 0;
#X connect 4 0 15 0;
#X connect 6 0 7 1;
#X connect 6 0 8 1;
#X connect 7 0 5 0;
#X connect 8 1 5 0;
#X connect 9 0 10 0;
#X connect 10 0 1 0;
#X connect 11 0 18 0;
#X connect 12 0 20 0;
#X connect 13 0 8 0;
#X connect 13 0 9 0;
#X connect 14 0 2 0;
#X connect 14 1 11 0;
#X connect 14 2 3 0;
#X connect 14 3 12 0;
#X connect 14 4 16 0;
#X connect 15 0 7 0;
#X connect 16 0 21 0;
#X connect 17 0 9 0;
#X connect 18 0 10 0;
#X connect 19 0 1 0;
#X connect 20 0 4 0;
#X connect 21 0 15 0;
#X coords 0 -1 1 1 60 40 1 100 100;
#X restore 227 369 pd color-to-filterbank;
#X obj 251 151 hradio 15 1 1 6 empty empty empty 0 -8 0 10 -262144
-1 -1 4;
#X obj 253 -31 loadbang;
#X obj 220 599 pan~;
#X obj 166 637 throw~ particles-left;
#X obj 312 633 throw~ particles-right;
#X obj 29 197 s \$0-mute;
#X obj 197 568 spigot~;
#X obj 235 540 r \$0-mute;
#X obj 694 168 bng 15 250 50 0 empty empty collision 17 7 0 10 -262144
-1 -1;
#N canvas 189 59 870 398 granular-sample 0;
#X obj 497 62 inlet~;
#X obj 541 215 expr~ if ($v1>0 \, $v1 \, 0) \;;
#X msg 582 132 -0.25;
#X obj 543 164 osc~ 22;
#X obj 617 72 inlet;
#X text 661 72 sample;
#X obj 606 105 bng 15 250 50 0 empty empty empty 17 7 0 10 -262144
-1 -1;
#N canvas 0 22 450 300 (subpatch) 0;
#X array \$0-grain 1000 float 2;
#X coords 0 1 999 -1 200 80 1 0 0;
#X restore 0 40 graph;
#X obj 550 306 tabwrite~ \$0-grain;
#X obj 509 243 *~;
#X connect 0 0 9 0;
#X connect 1 0 9 1;
#X connect 2 0 3 1;
#X connect 3 0 1 0;
#X connect 4 0 6 0;
#X connect 6 0 2 0;
#X connect 6 0 8 0;
#X connect 9 0 8 0;
#X coords 0 -1 1 1 200 120 1 0 0;
#X restore 574 271 pd granular-sample;
#N canvas 462 330 641 356 granular-osc 0;
#X obj 142 18 inlet;
#X obj 122 300 outlet~;
#N canvas 465 166 450 300 reader~ 0;
#X obj 65 100 tabread4~ \$0-grain;
#X obj 65 56 phasor~;
#X obj 65 78 *~ 1000;
#X obj 65 123 outlet~;
#X obj 53 29 inlet~;
#X obj 166 17 inlet;
#X connect 0 0 3 0;
#X connect 1 0 2 0;
#X connect 2 0 0 0;
#X connect 4 0 1 0;
#X connect 5 0 1 1;
#X restore 144 172 pd reader~;
#X msg 201 148 0;
#N canvas 644 119 450 300 reader~ 0;
#X obj 65 100 tabread4~ \$0-grain;
#X obj 65 56 phasor~;
#X obj 65 78 *~ 1000;
#X obj 65 123 outlet~;
#X obj 53 29 inlet~;
#X obj 166 17 inlet;
#X connect 0 0 3 0;
#X connect 1 0 2 0;
#X connect 2 0 0 0;
#X connect 4 0 1 0;
#X connect 5 0 1 1;
#X restore 223 172 pd reader~;
#N canvas 644 119 450 300 reader~ 0;
#X obj 65 100 tabread4~ \$0-grain;
#X obj 65 56 phasor~;
#X obj 65 78 *~ 1000;
#X obj 65 123 outlet~;
#X obj 53 29 inlet~;
#X obj 166 17 inlet;
#X connect 0 0 3 0;
#X connect 1 0 2 0;
#X connect 2 0 0 0;
#X connect 4 0 1 0;
#X connect 5 0 1 1;
#X restore 306 175 pd reader~;
#N canvas 644 119 450 300 reader~ 0;
#X obj 65 100 tabread4~ \$0-grain;
#X obj 65 56 phasor~;
#X obj 65 78 *~ 1000;
#X obj 65 123 outlet~;
#X obj 53 29 inlet~;
#X obj 166 17 inlet;
#X connect 0 0 3 0;
#X connect 1 0 2 0;
#X connect 2 0 0 0;
#X connect 4 0 1 0;
#X connect 5 0 1 1;
#X restore 385 175 pd reader~;
#X msg 279 148 0.25;
#X msg 363 151 0.5;
#X msg 442 151 0.75;
#X obj 358 74 inlet~;
#X obj 170 113 +~ 0;
#X obj 137 243 *~ 2.5;
#X connect 2 0 12 0;
#X connect 3 0 2 1;
#X connect 4 0 12 0;
#X connect 5 0 12 0;
#X connect 6 0 12 0;
#X connect 7 0 4 1;
#X connect 8 0 5 1;
#X connect 9 0 6 1;
#X connect 10 0 11 0;
#X connect 11 0 2 0;
#X connect 11 0 4 0;
#X connect 11 0 5 0;
#X connect 11 0 6 0;
#X connect 12 0 1 0;
#X restore 670 457 pd granular-osc;
#X obj 789 194 metrum 400 0;
#N canvas 387 128 450 679 y-to-cutoff 0;
#X obj 49 8 inlet;
#X obj 206 35 inlet~;
#X obj 86 263 outlet~;
#X obj 52 112 sig~;
#X obj 52 137 lop~ 10;
#X obj 102 122 tgl 15 0 empty empty bypass 17 7 0 10 -262144 -1 -1
0 1;
#X obj 86 229 spigot~;
#X obj 248 194 spigot~;
#X floatatom 13 109 5 0 0 0 - - -;
#X obj 155 167 loadbang;
#X obj 72 196 vcf~;
#X obj 34 82 mtof;
#X floatatom 34 62 5 0 0 0 - - -;
#X msg 154 199 2;
#X obj 41 38 expr $f1*85 + 45;
#X obj 128 17 r \$1-init-voices;
#X connect 0 0 14 0;
#X connect 1 0 7 0;
#X connect 1 0 10 0;
#X connect 3 0 4 0;
#X connect 4 0 10 1;
#X connect 5 0 6 1;
#X connect 5 0 7 1;
#X connect 6 0 2 0;
#X connect 7 1 2 0;
#X connect 9 0 13 0;
#X connect 10 0 6 0;
#X connect 11 0 3 0;
#X connect 11 0 8 0;
#X connect 12 0 11 0;
#X connect 13 0 10 2;
#X connect 14 0 12 0;
#X connect 15 0 13 0;
#X coords 0 -1 1 1 60 40 1 100 100;
#X restore 563 464 pd y-to-cutoff;
#N canvas 1071 309 821 590 granular-frequency-envelope 0;
#X obj 17 14 inlet;
#X obj 38 302 outlet~;
#X obj 37 223 line~;
#X obj 345 263 noise~;
#X obj 398 253 vline~;
#X msg 397 135 0 \, 1 0.5 \, 0 0.5 0.5;
#N canvas 0 22 450 300 (subpatch) 0;
#X array \$0-frequency-envelope 49 float 1;
#A 0 0.0748326 0.0120253 0.0949868 0.105667 0.0632701 0.227608 0.173913
0.212337 0.358104 0.365953 0.388536 0.316699 0.464409 0.528786 0.539414
0.516987 0.455178 0.599522 0.542679 0.626718 0.754136 0.722954 0.727537
0.555573 0.681253 0.584144 0.531375 0.505347 0.430792 0.537321 0.357583
0.393692 0.342218 0.292706 0.262723 0.242135 0.270312 0.237475 0.107996
0.21092 0.184649 -0.0313831 0.0670544 -0.0462971 0.080983 -0.0670589
-0.0241212 -0.053957 0.0267585;
#X coords 0 1 49 -1 200 100 1 0 0;
#X restore 100 140 graph;
#X obj 36 246 *~ 50;
#X obj 37 273 tabread4~ \$0-frequency-envelope;
#X obj 357 8 inlet;
#X obj 357 90 select 0 1 2 3 4 5 6 7;
#X obj 344 309 tabwrite~ \$0-frequency-envelope;
#X msg 327 206 bang;
#X msg 544 126 0 \, 1 0.5 \, 0 0.5 0.5;
#X obj 360 36 hradio 15 1 0 8 empty empty empty 0 -8 0 10 -262144 -1
-1 4;
#X msg 452 187 0 \, 1 0.5 \, 1 0 0.1;
#X msg 414 160 1 \, 0.2 0.2 \, 1 0.2 0.2;
#X msg 473 216 1 \, 0 0.1 \, 1 0.1 0.1 \, 0 0.1 0.2 \, 1 0.8 0.3;
#X obj 345 284 expr~ $v1*0.1+$v2*0.7;
#X msg 580 177 1 \, 0 0.5 \, 1 0.5 1;
#X obj 169 426 outlet~;
#X obj 168 366 expr~ if($v1!=1 && $v2>0 \, 1 \, 0);
#X obj 37 152 f;
#X msg 36 195 0 \, 1 \$1;
#X msg 44 75 bang;
#X floatatom 36 176 5 0 0 0 - - -;
#X obj 15 80 bng 15 250 50 0 empty empty empty 17 7 0 10 -262144 -1
-1;
#X obj 48 40 r \$1-init-voices;
#X obj 165 31 loadbang;
#X obj 16 49 t b b;
#X obj 44 96 random 3000;
#X obj 42 120 expr $f1/1000*500+300;
#X connect 0 0 29 0;
#X connect 2 0 7 0;
#X connect 2 0 21 0;
#X connect 3 0 18 0;
#X connect 4 0 18 1;
#X connect 5 0 4 0;
#X connect 7 0 8 0;
#X connect 8 0 1 0;
#X connect 8 0 21 1;
#X connect 9 0 14 0;
#X connect 10 0 5 0;
#X connect 10 1 16 0;
#X connect 10 2 15 0;
#X connect 10 3 17 0;
#X connect 10 4 13 0;
#X connect 10 5 19 0;
#X connect 12 0 11 0;
#X connect 13 0 4 0;
#X connect 14 0 12 0;
#X connect 14 0 10 0;
#X connect 15 0 4 0;
#X connect 16 0 4 0;
#X connect 17 0 4 0;
#X connect 18 0 11 0;
#X connect 19 0 4 0;
#X connect 21 0 20 0;
#X connect 22 0 25 0;
#X connect 23 0 2 0;
#X connect 24 0 30 0;
#X connect 25 0 23 0;
#X connect 26 0 22 0;
#X connect 27 0 24 0;
#X connect 28 0 24 0;
#X connect 29 0 22 0;
#X connect 29 1 24 0;
#X connect 30 0 31 0;
#X connect 31 0 22 1;
#X coords 0 -1 1 1 200 140 1 100 100;
#X restore 844 250 pd granular-frequency-envelope;
#X obj 504 654 throw~ collisions-left;
#X obj 645 653 throw~ collisions-right;
#X obj 565 539 *~;
#X obj 217 464 *~;
#X obj 260 578 expr $f1*90-45;
#X obj 648 132 f;
#X floatatom 648 164 5 0 0 2 time-to-live - -;
#X obj 755 408 expr~ $v1*20+0.1;
#X obj 543 225 change;
#X obj 72 44 r \$1-voice-\$2-mute;
#X obj 214 -64 r \$1-voice-\$2-udp;
#X obj 74 76 r \$1-mute-all-voices;
#X obj 541 162 hradio 15 1 1 6 empty empty z 0 -8 0 10 -262144 -1 -1
4;
#X msg 250 -5 size 500 \, shape 2 \, color 3 \, texture 1 \, rotation
2 \, x 250 \, y 299 \, z 4 \, time-to-live 5;
#X obj 326 -28 r \$1-init-voices;
#X obj 434 214 / 900;
#X obj 15 27 loadbang;
#X msg 11 55 1;
#X obj 205 94 route size shape color texture rotation x y z ttl collision
;
#X obj 640 209 / 360;
#X obj 447 343 expr if($f1<0 \, 1 \, 0);
#X obj 441 371 s \$1-voice-\$2-mute;
#X obj 121 140 cnv 15 60 60 empty \$0-mute-canvas empty 20 12 0 14
-258699 -262144 0;
#X obj 134 164 tgl 15 0 empty empty mute 17 7 0 10 -262144 -1 -1 1
1;
#X obj 88 337 s \$0-mute-canvas;
#X msg 88 312 color \$1;
#X obj 51 236 r \$0-mute;
#X obj 41 260 expr if($f1==1 \, 13 \, 16);
#X obj 205 42 route collision;
#X text 104 205 Mute does not mute collision;
#X obj 357 212 / 360;
#N canvas 68 50 894 422 x-z-y-to-amplitude-envelope 0;
#X obj 17 -8 inlet;
#X obj 250 10 inlet;
#X obj 17 118 select 0 1 2 3 4 5 6 7;
#X floatatom 17 94 5 0 0 0 - - -;
#X text 64 -7 type;
#X text 290 14 parameter;
#X obj 250 47 f;
#X obj 417 211 noise~;
#X obj 408 5 inlet time-to-live;
#X obj 419 243 lop~ 20;
#X obj 449 277 *~ 100;
#X floatatom 250 98 5 0 0 0 - - -;
#X floatatom 482 206 5 0 0 0 - - -;
#X floatatom 210 17 5 0 0 0 - - -;
#N canvas 396 216 450 293 envelope-0 0;
#X obj 58 74 switch~;
#X obj 58 55 tgl 15 0 empty empty empty 17 7 0 10 -262144 -1 -1 0 1
;
#X obj 61 253 throw~ \$0-amplitude-envelope;
#X obj 180 35 r \$0-amplitude-parameter;
#X obj 64 139 osc~ 1;
#X obj 58 35 inlet;
#X obj 38 7 r \$0-set-envelope-generators;
#X connect 1 0 0 0;
#X connect 3 0 4 0;
#X connect 4 0 2 0;
#X connect 5 0 1 0;
#X connect 6 0 1 0;
#X restore -6 161 pd envelope-0;
#X obj 556 251 catch~ \$0-amplitude-envelope;
#X obj 248 125 s \$0-amplitude-parameter;
#X obj 17 29 t f b;
#X msg 44 50 0;
#X obj 44 68 s \$0-set-envelope-generators;
#N canvas 396 216 678 293 envelope-1 0;
#X obj 58 74 switch~;
#X obj 58 55 tgl 15 0 empty empty empty 17 7 0 10 -262144 -1 -1 0 1
;
#X obj 61 194 throw~ \$0-amplitude-envelope;
#X obj 180 35 r \$0-amplitude-parameter;
#X obj 58 35 inlet;
#X obj 38 7 r \$0-set-envelope-generators;
#X obj 64 137 square~ 1;
#X obj 63 161 expr~ $v1*0.5+0.5;
#X connect 1 0 0 0;
#X connect 3 0 6 0;
#X connect 4 0 1 0;
#X connect 5 0 1 0;
#X connect 6 0 7 0;
#X connect 7 0 2 0;
#X restore 16 195 pd envelope-1;
#N canvas 396 216 450 293 envelope-2 0;
#X obj 58 74 switch~;
#X obj 58 55 tgl 15 0 empty empty empty 17 7 0 10 -262144 -1 -1 0 1
;
#X obj 61 253 throw~ \$0-amplitude-envelope;
#X obj 180 35 r \$0-amplitude-parameter;
#X obj 58 35 inlet;
#X obj 38 7 r \$0-set-envelope-generators;
#X obj 64 139 phasor~ 1;
#X connect 1 0 0 0;
#X connect 3 0 6 0;
#X connect 4 0 1 0;
#X connect 5 0 1 0;
#X connect 6 0 2 0;
#X restore 48 229 pd envelope-2;
#N canvas 396 216 450 293 envelope-3 0;
#X obj 58 74 switch~;
#X obj 58 55 tgl 15 0 empty empty empty 17 7 0 10 -262144 -1 -1 0 1
;
#X obj 61 253 throw~ \$0-amplitude-envelope;
#X obj 180 35 r \$0-amplitude-parameter;
#X obj 64 139 osc~ 1;
#X obj 58 35 inlet;
#X obj 38 7 r \$0-set-envelope-generators;
#X obj 54 162 expr~ if($v1>0 \, $v1 \, 0);
#X connect 1 0 0 0;
#X connect 3 0 4 0;
#X connect 4 0 7 0;
#X connect 5 0 1 0;
#X connect 6 0 1 0;
#X connect 7 0 2 0;
#X restore 70 263 pd envelope-3;
#N canvas 396 216 450 293 envelope-4 0;
#X obj 58 74 switch~;
#X obj 58 55 tgl 15 0 empty empty empty 17 7 0 10 -262144 -1 -1 1 1
;
#X obj 64 224 throw~ \$0-amplitude-envelope;
#X obj 129 85 r \$0-amplitude-parameter;
#X obj 58 35 inlet;
#X obj 38 7 r \$0-set-envelope-generators;
#X obj 64 137 phasor~ 1;
#X obj 64 171 expr~ if($v1>0.5 \, 2*(1-$v1) \, $v1*2);
#X connect 1 0 0 0;
#X connect 3 0 6 0;
#X connect 4 0 1 0;
#X connect 5 0 1 0;
#X connect 6 0 7 0;
#X connect 7 0 2 0;
#X restore 117 162 pd envelope-4;
#X obj 249 77 expr $f1*20 + 0.5;
#N canvas 396 216 450 293 envelope-5 0;
#X obj 58 74 switch~;
#X obj 58 55 tgl 15 0 empty empty empty 17 7 0 10 -262144 -1 -1 0 1
;
#X obj 64 224 throw~ \$0-amplitude-envelope;
#X obj 129 85 r \$0-amplitude-parameter;
#X obj 58 35 inlet;
#X obj 38 7 r \$0-set-envelope-generators;
#X obj 64 137 phasor~ 1;
#X obj 63 171 expr~ if($v1>0.8 \, 0 \, $v1);
#X connect 1 0 0 0;
#X connect 3 0 6 0;
#X connect 4 0 1 0;
#X connect 5 0 1 0;
#X connect 6 0 7 0;
#X connect 7 0 2 0;
#X restore 129 186 pd envelope-5;
#X obj 445 104 expr (1-$f1)*50;
#X obj 626 45 inlet y;
#X obj 623 342 *~;
#X obj 680 200 sig~;
#X obj 611 372 outlet~;
#X obj 637 232 lop~ 30;
#X obj 628 78 expr (1-$f1+0.1)/1.1;
#X obj 782 43 inlet;
#X obj 687 150 *;
#X obj 701 120 t b f;
#X connect 0 0 17 0;
#X connect 1 0 6 0;
#X connect 2 0 14 0;
#X connect 2 1 20 0;
#X connect 2 2 21 0;
#X connect 2 3 22 0;
#X connect 2 4 23 0;
#X connect 2 5 25 0;
#X connect 3 0 2 0;
#X connect 6 0 24 0;
#X connect 7 0 9 0;
#X connect 8 0 26 0;
#X connect 9 0 10 0;
#X connect 10 0 28 0;
#X connect 11 0 16 0;
#X connect 12 0 10 1;
#X connect 13 0 6 0;
#X connect 15 0 28 0;
#X connect 17 0 3 0;
#X connect 17 1 18 0;
#X connect 18 0 19 0;
#X connect 24 0 11 0;
#X connect 26 0 12 0;
#X connect 27 0 32 0;
#X connect 28 0 30 0;
#X connect 29 0 31 0;
#X connect 31 0 28 1;
#X connect 32 0 34 0;
#X connect 33 0 35 0;
#X connect 34 0 29 0;
#X connect 35 0 34 0;
#X connect 35 1 34 1;
#X restore 333 428 pd x-z-y-to-amplitude-envelope;
#X obj 514 592 expr~ $v1*$v2;
#X obj 792 437 r global-toggle;
#X obj 480 210 / 900;
#X obj 671 600 expr~ $v1*(1-$v2);
#X obj 917 568 dbtorms;
#X obj 910 515 expr $f1*30+80;
#X msg 818 566 1;
#X obj 205 223 / 150;
#X connect 0 0 62 0;
#X connect 1 0 73 0;
#X connect 2 0 28 0;
#X connect 3 0 1 0;
#X connect 4 0 16 0;
#X connect 5 0 20 0;
#X connect 6 0 64 0;
#X connect 7 0 6 0;
#X connect 9 0 8 0;
#X connect 10 0 49 0;
#X connect 11 0 10 0;
#X connect 12 0 68 0;
#X connect 13 0 12 0;
#X connect 14 0 42 0;
#X connect 15 0 46 0;
#X connect 16 0 19 1;
#X connect 17 0 16 1;
#X connect 17 1 18 0;
#X connect 19 0 29 0;
#X connect 19 0 37 0;
#X connect 20 0 4 0;
#X connect 21 0 47 0;
#X connect 22 0 23 0;
#X connect 22 1 24 0;
#X connect 26 0 22 0;
#X connect 27 0 26 1;
#X connect 28 0 29 1;
#X connect 28 0 33 0;
#X connect 28 0 30 0;
#X connect 30 0 32 1;
#X connect 32 0 36 0;
#X connect 33 0 41 0;
#X connect 33 0 66 1;
#X connect 33 0 69 1;
#X connect 33 1 36 1;
#X connect 36 0 66 0;
#X connect 36 0 69 0;
#X connect 37 0 26 0;
#X connect 38 0 22 1;
#X connect 39 0 40 0;
#X connect 40 0 53 0;
#X connect 41 0 30 1;
#X connect 42 0 65 0;
#X connect 42 0 33 1;
#X connect 43 0 57 0;
#X connect 44 0 62 0;
#X connect 45 0 57 0;
#X connect 46 0 14 0;
#X connect 47 0 62 0;
#X connect 48 0 47 0;
#X connect 49 0 38 0;
#X connect 49 0 65 1;
#X connect 50 0 51 0;
#X connect 51 0 57 0;
#X connect 52 0 3 0;
#X connect 52 1 5 0;
#X connect 52 2 7 0;
#X connect 52 4 9 0;
#X connect 52 5 11 0;
#X connect 52 6 13 0;
#X connect 52 7 15 0;
#X connect 52 8 39 0;
#X connect 52 9 28 0;
#X connect 53 0 65 2;
#X connect 53 0 54 0;
#X connect 53 0 71 0;
#X connect 54 0 55 0;
#X connect 57 0 25 0;
#X connect 59 0 58 0;
#X connect 60 0 61 0;
#X connect 61 0 59 0;
#X connect 62 0 28 0;
#X connect 62 1 52 0;
#X connect 64 0 19 0;
#X connect 65 0 37 1;
#X connect 66 0 34 0;
#X connect 67 0 30 0;
#X connect 68 0 32 0;
#X connect 68 0 65 3;
#X connect 69 0 35 0;
#X connect 70 0 65 4;
#X connect 71 0 70 0;
#X connect 72 0 65 4;
#X connect 73 0 17 0;
#X coords 0 -1 1 1 650 60 1 120 140;
